<?xml version="1.0" encoding="utf-8"?>
<!-- Generator: Adobe Illustrator 16.0.0, SVG Export Plug-In . SVG Version: 6.00 Build 0)  -->
<!DOCTYPE svg PUBLIC "-//W3C//DTD SVG 1.1//EN" "http://www.w3.org/Graphics/SVG/1.1/DTD/svg11.dtd">
<svg version="1.1" id="Layer_1" xmlns="http://www.w3.org/2000/svg" xmlns:xlink="http://www.w3.org/1999/xlink" x="0px" y="0px"
	 width="72px" height="72px" viewBox="0 0 72 72" enable-background="new 0 0 72 72" xml:space="preserve">
<g>
	<g>
		<path d="M36.083,45.154c-9.49,0-16.428-17.231-16.428-26.2c0-9.059,7.369-16.428,16.428-16.428
			c9.058,0,16.428,7.369,16.428,16.428C52.511,27.922,45.573,45.154,36.083,45.154z M36.083,6.526
			c-6.853,0-12.428,5.575-12.428,12.428c0,7.764,6.388,22.2,12.428,22.2c6.039,0,12.428-14.437,12.428-22.2
			C48.511,12.101,42.936,6.526,36.083,6.526z"/>
	</g>
	<g>
		<g>
			<path d="M27.688,20.425c-0.553,0-1-0.447-1-1c0-5.499,4.474-9.973,9.973-9.973c0.552,0,1,0.448,1,1c0,0.553-0.448,1-1,1
				c-4.396,0-7.973,3.577-7.973,7.973C28.688,19.978,28.24,20.425,27.688,20.425z"/>
		</g>
		<g>
			<path d="M28.039,24.264c-0.27,0-0.52-0.1-0.71-0.29c-0.189-0.189-0.29-0.45-0.29-0.71s0.101-0.52,0.29-0.71
				c0.37-0.37,1.04-0.37,1.41,0c0.19,0.19,0.3,0.45,0.3,0.71c0,0.271-0.109,0.521-0.3,0.71C28.56,24.165,28.3,24.264,28.039,24.264z
				"/>
		</g>
	</g>
	<g>
		<path d="M36,69.475c-5.649,0-24.083-0.577-24.083-8c0-10.635,7.018-20.227,17.066-23.326l1.225-0.378l0.855,0.955
			c3.062,3.42,6.725,3.581,10.01-0.066l0.861-0.956l1.227,0.387c9.963,3.144,16.922,12.76,16.922,23.385
			C60.083,68.898,41.649,69.475,36,69.475z M29.028,42.36c-7.777,2.934-13.111,10.625-13.111,19.115c0,1.102,6.175,4,20.083,4
			c13.907,0,20.083-2.898,20.083-4c0-8.486-5.283-16.199-12.986-19.17c-2.141,2-4.544,3.049-7.014,3.049
			C33.555,45.354,31.139,44.324,29.028,42.36z"/>
	</g>
</g>
</svg>
